<?xml version="1.0" standalone="no"?>
<!DOCTYPE svg PUBLIC "-//W3C//DTD SVG 20010904//EN"
 "http://www.w3.org/TR/2001/REC-SVG-20010904/DTD/svg10.dtd">
<svg version="1.0" xmlns="http://www.w3.org/2000/svg"
 width="233.000000pt" height="233.000000pt" viewBox="0 0 233.000000 233.000000"
 preserveAspectRatio="xMidYMid meet">
<metadata>
Created by potrace 1.14, written by Peter Selinger 2001-2017
</metadata>
<g transform="translate(0.000000,233.000000) scale(0.100000,-0.100000)"
fill="#000000" stroke="none">
<path d="M910 1668 c0 -7 30 -43 68 -81 63 -64 66 -69 48 -82 -17 -13 -25 -8
-88 56 -60 61 -88 77 -88 50 0 -4 29 -38 65 -75 69 -71 70 -73 56 -95 -7 -12
-26 1 -85 59 -55 53 -79 71 -87 63 -8 -8 -5 -17 10 -32 12 -12 22 -24 22 -28
1 -7 77 -98 107 -130 20 -20 62 -27 94 -15 24 9 31 7 56 -19 l28 -28 26 23 27
22 -29 30 c-27 26 -29 33 -21 62 15 52 -3 81 -95 157 -88 72 -114 86 -114 63z"/>
<path d="M1400 1653 c-92 -39 -152 -143 -127 -219 8 -23 0 -33 -94 -114 -35
-30 -70 -62 -79 -70 -9 -8 -47 -42 -85 -75 -39 -32 -77 -66 -86 -75 -38 -38
-31 -91 13 -106 32 -11 47 -6 72 21 51 55 95 105 156 175 35 41 82 93 102 115
21 22 38 44 38 48 0 5 22 6 49 2 98 -13 194 59 221 167 10 39 9 51 -5 82 -29
60 -102 81 -175 49z"/>
<path d="M1247 1224 c-16 -19 -26 -38 -22 -42 4 -4 37 -41 73 -82 100 -111
112 -121 136 -114 54 16 73 68 38 102 -39 37 -185 167 -191 169 -3 2 -19 -13
-34 -33z"/>
<path d="M517 814 c-9 -10 15 -54 30 -54 15 0 15 5 7 38 -6 21 -24 29 -37 16z"/>
<path d="M596 742 c-30 -89 -31 -102 -12 -102 9 0 22 22 32 55 10 30 20 52 23
49 3 -3 13 -26 22 -52 25 -73 47 -65 76 28 27 88 28 100 9 100 -7 0 -21 -24
-31 -55 -9 -30 -18 -55 -20 -55 -2 0 -12 25 -21 55 -26 81 -46 75 -78 -23z"/>
<path d="M810 789 c0 -23 4 -30 17 -27 11 2 18 14 20 31 1 21 -3 27 -18 27
-15 0 -19 -7 -19 -31z"/>
<path d="M929 803 c-1 -10 -2 -25 -3 -33 -1 -11 -16 -16 -58 -18 l-58 -3 0
-55 c0 -47 3 -55 18 -52 11 2 17 13 17 31 0 32 14 43 52 41 28 -1 29 -2 32
-56 1 -10 7 -18 15 -18 15 0 24 70 18 143 -3 38 -31 55 -33 20z"/>
<path d="M1029 810 c-5 -35 -2 -45 11 -45 9 0 16 11 18 28 2 19 -1 27 -12 27
-9 0 -17 -4 -17 -10z"/>
<path d="M1138 806 c-19 -14 -23 -43 -10 -62 4 -6 27 -18 51 -26 51 -16 61
-30 32 -44 -27 -12 -13 -35 17 -27 23 6 38 42 29 67 -3 8 -28 21 -56 31 -51
17 -64 31 -36 41 18 7 20 34 3 34 -7 0 -21 -7 -30 -14z"/>
<path d="M1200 808 c1 -18 25 -48 38 -48 21 0 22 20 2 40 -23 23 -40 26 -40 8z"/>
<path d="M1317 808 c-6 -21 4 -48 19 -48 9 0 14 11 14 30 0 30 -24 43 -33 18z"/>
<path d="M1371 771 c-45 -40 -54 -55 -54 -80 2 -49 2 -51 18 -51 10 0 15 10
15 34 0 58 22 62 58 11 17 -25 38 -45 47 -45 21 0 20 4 -20 63 l-36 52 31 27
c35 32 37 38 13 38 -10 0 -42 -22 -72 -49z"/>
<path d="M1516 805 c-4 -12 6 -15 64 -15 56 0 70 3 70 15 0 12 -14 15 -64 15
-48 0 -65 -4 -70 -15z"/>
<path d="M1706 805 c-4 -12 4 -15 39 -16 63 -2 65 -2 75 -19 33 -51 -9 -106
-75 -97 -29 4 -35 2 -35 -14 0 -16 8 -19 46 -19 58 0 82 13 100 56 12 29 12
39 0 68 -8 19 -23 39 -34 45 -31 17 -109 14 -116 -4z"/>
<path d="M1029 738 c0 -7 -2 -32 -3 -55 -3 -36 -1 -43 15 -43 16 0 19 8 19 55
0 42 -3 55 -15 55 -8 0 -15 -6 -16 -12z"/>
<path d="M1520 731 c0 -16 8 -18 57 -17 46 1 58 4 61 19 3 15 -5 17 -57 17
-53 0 -61 -2 -61 -19z"/>
<path d="M1117 703 c-11 -10 -8 -18 13 -41 22 -23 50 -30 50 -12 0 6 -12 22
-26 35 -30 28 -28 27 -37 18z"/>
<path d="M1533 672 c-14 -2 -20 -8 -16 -18 8 -21 133 -20 133 1 0 8 -3 15 -7
16 -50 3 -92 4 -110 1z"/>
</g>
</svg>
